<svg width="139" height="28" viewBox="0 0 139 28" fill="none" xmlns="http://www.w3.org/2000/svg">
<path fill-rule="evenodd" clip-rule="evenodd" d="M21.362 3.13962C21.1308 2.95859 20.8101 2.94452 20.5639 3.10462L10.1211 9.89526C9.9262 10.022 9.8086 10.2388 9.8086 10.4713V13.8936C9.8086 14.6587 9.18837 15.2789 8.42329 15.2789C7.6582 15.2789 7.03797 14.6587 7.03797 13.8936V10.4713C7.03797 9.30117 7.62977 8.21043 8.61073 7.57254L19.0535 0.781892C20.2924 -0.0237412 21.9064 0.0470402 23.07 0.958041L29.1119 5.68819L35.7463 1.78172C38.0513 0.424474 40.9585 2.08637 40.9585 4.76131V25.8376C40.9585 26.6027 40.3382 27.2229 39.5731 27.2229C38.8081 27.2229 38.1878 26.6027 38.1878 25.8376V4.76131C38.1878 4.22975 37.6101 3.8995 37.1521 4.16921L31.4558 7.52327L31.597 7.63378C32.4341 8.28916 32.9232 9.29322 32.9232 10.3564V23.7652C32.9232 25.6748 31.3751 27.2229 29.4655 27.2229H3.61243C0.538466 27.2229 -0.567752 23.1641 2.08115 21.6044L26.5467 7.19863L21.362 3.13962ZM28.8906 9.03371L3.48695 23.9919C3.40446 24.0405 3.38413 24.0831 3.37516 24.1075C3.36173 24.144 3.35528 24.2019 3.37384 24.27C3.3924 24.3381 3.42735 24.3847 3.45745 24.4094C3.47753 24.4258 3.5167 24.4523 3.61243 24.4523H29.4655C29.8449 24.4523 30.1526 24.1446 30.1526 23.7652V10.3564C30.1526 10.1451 30.0554 9.94559 29.889 9.81535L28.8906 9.03371Z" fill="#00DD8B"/>
<path d="M132.037 21.6364L127.531 10.9753H130.191L133.268 18.8007H132.499L135.752 10.9753H138.434L133.532 21.6364H132.037ZM128.894 25.9228L132.169 19.1744L133.532 21.6364L131.575 25.9228H128.894Z" fill="#014F59"/>
<path d="M121.927 21.5264V6.57892H124.345V21.5264H121.927ZM119.399 13.1734V10.9752H126.873V13.1734H119.399Z" fill="#014F59"/>
<path d="M111.349 21.5264V10.9752H113.767V21.5264H111.349ZM113.767 15.6573L112.932 15.2397C112.932 13.9061 113.225 12.829 113.811 12.0084C114.412 11.1731 115.313 10.7554 116.515 10.7554C117.043 10.7554 117.519 10.8507 117.944 11.0412C118.369 11.2317 118.765 11.5394 119.131 11.9644L117.548 13.5911C117.358 13.3859 117.145 13.2394 116.911 13.1514C116.676 13.0635 116.405 13.0195 116.097 13.0195C115.423 13.0195 114.866 13.232 114.427 13.657C113.987 14.082 113.767 14.7488 113.767 15.6573Z" fill="#014F59"/>
<path d="M104.509 21.7463C103.454 21.7463 102.501 21.5118 101.652 21.0428C100.816 20.5593 100.149 19.8998 99.6512 19.0645C99.1676 18.2292 98.9258 17.2913 98.9258 16.2508C98.9258 15.2104 99.1676 14.2798 99.6512 13.4592C100.135 12.6239 100.787 11.9644 101.608 11.4808C102.443 10.9972 103.366 10.7554 104.377 10.7554C105.359 10.7554 106.224 10.9826 106.971 11.4369C107.733 11.8911 108.327 12.514 108.752 13.3053C109.191 14.0966 109.411 14.9979 109.411 16.009C109.411 16.1849 109.396 16.3681 109.367 16.5586C109.352 16.7344 109.323 16.9323 109.279 17.1521H100.618V15.1737H108.026L107.125 15.9651C107.096 15.3203 106.971 14.7781 106.751 14.3384C106.531 13.8988 106.216 13.5618 105.806 13.3273C105.41 13.0928 104.919 12.9756 104.333 12.9756C103.718 12.9756 103.183 13.1075 102.729 13.3712C102.274 13.635 101.923 14.0087 101.673 14.4923C101.424 14.9613 101.3 15.5255 101.3 16.1849C101.3 16.8443 101.432 17.4232 101.695 17.9215C101.959 18.4197 102.333 18.808 102.817 19.0865C103.3 19.3503 103.857 19.4821 104.487 19.4821C105.029 19.4821 105.528 19.3869 105.982 19.1964C106.451 19.0059 106.847 18.7274 107.169 18.3611L108.708 19.9218C108.195 20.5226 107.572 20.9769 106.839 21.2846C106.106 21.5924 105.33 21.7463 104.509 21.7463Z" fill="#014F59"/>
<path d="M92.5052 21.7463C91.6992 21.7463 90.9812 21.5777 90.351 21.2407C89.7209 20.889 89.2226 20.4127 88.8563 19.8119C88.5046 19.211 88.3287 18.5296 88.3287 17.7676V14.7341C88.3287 13.9721 88.5119 13.2906 88.8783 12.6898C89.2446 12.089 89.7429 11.62 90.373 11.283C91.0032 10.9313 91.7139 10.7554 92.5052 10.7554C93.4578 10.7554 94.3151 11.0046 95.0771 11.5028C95.8538 11.9864 96.4619 12.6459 96.9016 13.4812C97.3559 14.3018 97.583 15.2324 97.583 16.2728C97.583 17.2986 97.3559 18.2292 96.9016 19.0645C96.4619 19.8851 95.8538 20.5373 95.0771 21.0209C94.3151 21.5045 93.4578 21.7463 92.5052 21.7463ZM86.856 25.9228V10.9752H89.2739V13.8109L88.8563 16.3827L89.2739 18.9326V25.9228H86.856ZM92.1096 19.4602C92.6958 19.4602 93.2087 19.3283 93.6483 19.0645C94.1026 18.7861 94.4543 18.405 94.7034 17.9215C94.9672 17.4379 95.0991 16.881 95.0991 16.2508C95.0991 15.6207 94.9672 15.0638 94.7034 14.5802C94.4543 14.0966 94.1026 13.723 93.6483 13.4592C93.2087 13.1807 92.6958 13.0415 92.1096 13.0415C91.5234 13.0415 91.0032 13.1807 90.5489 13.4592C90.0946 13.723 89.7429 14.0966 89.4938 14.5802C89.2446 15.0638 89.1201 15.6207 89.1201 16.2508C89.1201 16.881 89.2446 17.4379 89.4938 17.9215C89.7429 18.405 90.0946 18.7861 90.5489 19.0645C91.0032 19.3283 91.5234 19.4602 92.1096 19.4602Z" fill="#014F59"/>
<path d="M81.7471 21.5264V5.69964H84.1651V21.5264H81.7471Z" fill="#014F59"/>
<path d="M76.6379 21.5264V5.69964H79.0559V21.5264H76.6379Z" fill="#014F59"/>
<path d="M69.7977 21.7463C68.7426 21.7463 67.79 21.5118 66.9401 21.0428C66.1048 20.5593 65.438 19.8998 64.9397 19.0645C64.4562 18.2292 64.2144 17.2913 64.2144 16.2508C64.2144 15.2104 64.4562 14.2798 64.9397 13.4592C65.4233 12.6239 66.0755 11.9644 66.8961 11.4808C67.7314 10.9972 68.6547 10.7554 69.6658 10.7554C70.6477 10.7554 71.5123 10.9826 72.2596 11.4369C73.0217 11.8911 73.6152 12.514 74.0402 13.3053C74.4798 14.0966 74.6996 14.9979 74.6996 16.009C74.6996 16.1849 74.685 16.3681 74.6556 16.5586C74.641 16.7344 74.6117 16.9323 74.5677 17.1521H65.9069V15.1737H73.3148L72.4135 15.9651C72.3842 15.3203 72.2596 14.7781 72.0398 14.3384C71.82 13.8988 71.5049 13.5618 71.0946 13.3273C70.6989 13.0928 70.208 12.9756 69.6218 12.9756C69.0064 12.9756 68.4715 13.1075 68.0172 13.3712C67.5629 13.635 67.2112 14.0087 66.9621 14.4923C66.7129 14.9613 66.5884 15.5255 66.5884 16.1849C66.5884 16.8443 66.7203 17.4232 66.984 17.9215C67.2478 18.4197 67.6215 18.808 68.1051 19.0865C68.5887 19.3503 69.1456 19.4821 69.7757 19.4821C70.3179 19.4821 70.8162 19.3869 71.2705 19.1964C71.7394 19.0059 72.1351 18.7274 72.4575 18.3611L73.9962 19.9218C73.4833 20.5226 72.8605 20.9769 72.1278 21.2846C71.395 21.5924 70.6183 21.7463 69.7977 21.7463Z" fill="#014F59"/>
<path d="M57.4265 21.7463C56.2102 21.7463 55.1771 21.5265 54.3271 21.0868C53.4772 20.6472 52.7151 20.0024 52.041 19.1524L53.7556 17.4379C54.1806 18.0534 54.6861 18.537 55.2723 18.8887C55.8585 19.2257 56.6059 19.3942 57.5144 19.3942C58.3644 19.3942 59.0385 19.2184 59.5368 18.8667C60.0497 18.515 60.3061 18.0314 60.3061 17.4159C60.3061 16.903 60.1742 16.4853 59.9104 16.1629C59.6467 15.8405 59.295 15.5768 58.8553 15.3716C58.4304 15.1518 57.9541 14.9613 57.4265 14.8001C56.9136 14.6242 56.3934 14.4337 55.8658 14.2285C55.3529 14.0087 54.8766 13.7376 54.437 13.4152C54.012 13.0928 53.6677 12.6752 53.4039 12.1623C53.1401 11.6494 53.0082 10.9972 53.0082 10.2059C53.0082 9.29733 53.228 8.52797 53.6677 7.89783C54.1219 7.25303 54.7301 6.76211 55.4921 6.42506C56.2542 6.08801 57.1041 5.91948 58.042 5.91948C59.0532 5.91948 59.9544 6.11731 60.7458 6.51298C61.5517 6.90865 62.2039 7.41423 62.7021 8.02972L60.9875 9.74429C60.5479 9.24604 60.0863 8.87968 59.6027 8.64521C59.1338 8.39608 58.5915 8.27152 57.9761 8.27152C57.214 8.27152 56.6132 8.42539 56.1736 8.73313C55.7486 9.04088 55.5361 9.47318 55.5361 10.0301C55.5361 10.499 55.668 10.88 55.9318 11.1731C56.1955 11.4515 56.5399 11.6933 56.9649 11.8985C57.4045 12.089 57.8808 12.2722 58.3937 12.448C58.9213 12.6239 59.4415 12.8217 59.9544 13.0415C60.482 13.2614 60.9582 13.5471 61.3832 13.8988C61.8229 14.2359 62.1746 14.6755 62.4383 15.2177C62.7021 15.7599 62.834 16.4414 62.834 17.262C62.834 18.6395 62.3431 19.7313 61.3612 20.5373C60.394 21.3433 59.0825 21.7463 57.4265 21.7463Z" fill="#014F59"/>
</svg>
